<mxfile host="app.diagrams.net" modified="2022-03-14T13:49:46.256Z" agent="5.0 (Windows NT 10.0; Win64; x64) AppleWebKit/537.36 (KHTML, like Gecko) Chrome/99.0.4844.51 Safari/537.36 Edg/99.0.1150.39" etag="-5B92yhBpt8PENWMARGM" version="17.1.2" type="github">
  <diagram id="R2lEEEUBdFMjLlhIrx00" name="Page-1">
    <mxGraphModel dx="1221" dy="681" grid="1" gridSize="10" guides="1" tooltips="1" connect="1" arrows="1" fold="1" page="1" pageScale="1" pageWidth="850" pageHeight="1100" math="0" shadow="0" extFonts="Permanent Marker^https://fonts.googleapis.com/css?family=Permanent+Marker">
      <root>
        <mxCell id="0" />
        <mxCell id="1" parent="0" />
        <mxCell id="cSipRcI18R2bOfCGjARb-1" value="Employees" style="rounded=0;whiteSpace=wrap;html=1;" vertex="1" parent="1">
          <mxGeometry x="155" y="415" width="120" height="60" as="geometry" />
        </mxCell>
        <mxCell id="cSipRcI18R2bOfCGjARb-7" value="UEN" style="ellipse;whiteSpace=wrap;html=1;align=center;fontStyle=4;" vertex="1" parent="1">
          <mxGeometry x="20" y="350" width="90" height="40" as="geometry" />
        </mxCell>
        <mxCell id="cSipRcI18R2bOfCGjARb-8" value="Name" style="ellipse;whiteSpace=wrap;html=1;align=center;" vertex="1" parent="1">
          <mxGeometry x="130" y="330" width="100" height="40" as="geometry" />
        </mxCell>
        <mxCell id="cSipRcI18R2bOfCGjARb-9" value="Last_name" style="ellipse;whiteSpace=wrap;html=1;align=center;" vertex="1" parent="1">
          <mxGeometry x="175" y="240" width="100" height="40" as="geometry" />
        </mxCell>
        <mxCell id="cSipRcI18R2bOfCGjARb-10" value="First_name" style="ellipse;whiteSpace=wrap;html=1;align=center;" vertex="1" parent="1">
          <mxGeometry x="50" y="240" width="100" height="40" as="geometry" />
        </mxCell>
        <mxCell id="cSipRcI18R2bOfCGjARb-12" value="" style="endArrow=none;html=1;rounded=0;" edge="1" parent="1" target="cSipRcI18R2bOfCGjARb-8">
          <mxGeometry relative="1" as="geometry">
            <mxPoint x="110" y="280" as="sourcePoint" />
            <mxPoint x="270" y="280" as="targetPoint" />
          </mxGeometry>
        </mxCell>
        <mxCell id="cSipRcI18R2bOfCGjARb-14" value="" style="endArrow=none;html=1;rounded=0;" edge="1" parent="1" target="cSipRcI18R2bOfCGjARb-8">
          <mxGeometry relative="1" as="geometry">
            <mxPoint x="210" y="280" as="sourcePoint" />
            <mxPoint x="370" y="280" as="targetPoint" />
          </mxGeometry>
        </mxCell>
        <mxCell id="cSipRcI18R2bOfCGjARb-15" value="" style="endArrow=none;html=1;rounded=0;exitX=0.5;exitY=1;exitDx=0;exitDy=0;entryX=0;entryY=0.5;entryDx=0;entryDy=0;" edge="1" parent="1" source="cSipRcI18R2bOfCGjARb-7" target="cSipRcI18R2bOfCGjARb-1">
          <mxGeometry relative="1" as="geometry">
            <mxPoint x="-80" y="450" as="sourcePoint" />
            <mxPoint x="80" y="450" as="targetPoint" />
          </mxGeometry>
        </mxCell>
        <mxCell id="cSipRcI18R2bOfCGjARb-17" value="" style="endArrow=none;html=1;rounded=0;entryX=0.377;entryY=-0.01;entryDx=0;entryDy=0;entryPerimeter=0;exitX=0.5;exitY=1;exitDx=0;exitDy=0;" edge="1" parent="1" source="cSipRcI18R2bOfCGjARb-8" target="cSipRcI18R2bOfCGjARb-1">
          <mxGeometry relative="1" as="geometry">
            <mxPoint x="160" y="350" as="sourcePoint" />
            <mxPoint x="320" y="350" as="targetPoint" />
          </mxGeometry>
        </mxCell>
        <mxCell id="cSipRcI18R2bOfCGjARb-18" value="" style="endArrow=none;html=1;rounded=0;entryX=0;entryY=1;entryDx=0;entryDy=0;exitX=0.675;exitY=0.031;exitDx=0;exitDy=0;exitPerimeter=0;" edge="1" parent="1" source="cSipRcI18R2bOfCGjARb-1" target="cSipRcI18R2bOfCGjARb-117">
          <mxGeometry relative="1" as="geometry">
            <mxPoint x="230" y="410" as="sourcePoint" />
            <mxPoint x="274.64466094067257" y="364.14213562373106" as="targetPoint" />
            <Array as="points" />
          </mxGeometry>
        </mxCell>
        <mxCell id="cSipRcI18R2bOfCGjARb-86" value="Customers" style="rounded=0;whiteSpace=wrap;html=1;" vertex="1" parent="1">
          <mxGeometry x="1270" y="400" width="120" height="60" as="geometry" />
        </mxCell>
        <mxCell id="cSipRcI18R2bOfCGjARb-87" value="Name" style="ellipse;whiteSpace=wrap;html=1;align=center;" vertex="1" parent="1">
          <mxGeometry x="1320" y="290" width="100" height="40" as="geometry" />
        </mxCell>
        <mxCell id="cSipRcI18R2bOfCGjARb-88" value="First_name" style="ellipse;whiteSpace=wrap;html=1;align=center;" vertex="1" parent="1">
          <mxGeometry x="1250" y="220" width="100" height="40" as="geometry" />
        </mxCell>
        <mxCell id="cSipRcI18R2bOfCGjARb-89" value="Last_name" style="ellipse;whiteSpace=wrap;html=1;align=center;" vertex="1" parent="1">
          <mxGeometry x="1400" y="220" width="100" height="40" as="geometry" />
        </mxCell>
        <mxCell id="cSipRcI18R2bOfCGjARb-91" value="" style="endArrow=none;html=1;rounded=0;entryX=0.266;entryY=0.087;entryDx=0;entryDy=0;entryPerimeter=0;" edge="1" parent="1" target="cSipRcI18R2bOfCGjARb-87">
          <mxGeometry relative="1" as="geometry">
            <mxPoint x="1300" y="260" as="sourcePoint" />
            <mxPoint x="1460" y="260" as="targetPoint" />
          </mxGeometry>
        </mxCell>
        <mxCell id="cSipRcI18R2bOfCGjARb-93" value="" style="endArrow=none;html=1;rounded=0;entryX=0.342;entryY=1.019;entryDx=0;entryDy=0;entryPerimeter=0;exitX=1;exitY=0;exitDx=0;exitDy=0;" edge="1" parent="1" source="cSipRcI18R2bOfCGjARb-87" target="cSipRcI18R2bOfCGjARb-89">
          <mxGeometry relative="1" as="geometry">
            <mxPoint x="1320" y="280" as="sourcePoint" />
            <mxPoint x="1386.6" y="333.48" as="targetPoint" />
          </mxGeometry>
        </mxCell>
        <mxCell id="cSipRcI18R2bOfCGjARb-94" value="" style="endArrow=none;html=1;rounded=0;entryX=0.5;entryY=1;entryDx=0;entryDy=0;exitX=0.656;exitY=0.017;exitDx=0;exitDy=0;exitPerimeter=0;" edge="1" parent="1" source="cSipRcI18R2bOfCGjARb-86" target="cSipRcI18R2bOfCGjARb-87">
          <mxGeometry relative="1" as="geometry">
            <mxPoint x="1330" y="290" as="sourcePoint" />
            <mxPoint x="1396.6" y="343.48" as="targetPoint" />
          </mxGeometry>
        </mxCell>
        <mxCell id="cSipRcI18R2bOfCGjARb-95" value="&lt;span style=&quot;border-bottom: 1px dotted&quot;&gt;UCN&lt;/span&gt;" style="ellipse;whiteSpace=wrap;html=1;align=center;" vertex="1" parent="1">
          <mxGeometry x="1130" y="320" width="100" height="40" as="geometry" />
        </mxCell>
        <mxCell id="cSipRcI18R2bOfCGjARb-100" value="" style="endArrow=none;html=1;rounded=0;entryX=0;entryY=0;entryDx=0;entryDy=0;" edge="1" parent="1" target="cSipRcI18R2bOfCGjARb-86">
          <mxGeometry relative="1" as="geometry">
            <mxPoint x="1180" y="360" as="sourcePoint" />
            <mxPoint x="1340" y="360" as="targetPoint" />
          </mxGeometry>
        </mxCell>
        <mxCell id="cSipRcI18R2bOfCGjARb-102" value="" style="endArrow=none;html=1;rounded=0;entryX=0;entryY=1;entryDx=0;entryDy=0;" edge="1" parent="1">
          <mxGeometry relative="1" as="geometry">
            <mxPoint x="1390" y="410" as="sourcePoint" />
            <mxPoint x="1454.6446609406726" y="374.14213562373084" as="targetPoint" />
          </mxGeometry>
        </mxCell>
        <mxCell id="cSipRcI18R2bOfCGjARb-105" value="Part" style="rounded=0;whiteSpace=wrap;html=1;" vertex="1" parent="1">
          <mxGeometry x="733" y="730" width="120" height="60" as="geometry" />
        </mxCell>
        <mxCell id="cSipRcI18R2bOfCGjARb-107" value="UPN" style="ellipse;whiteSpace=wrap;html=1;align=center;fontStyle=4;" vertex="1" parent="1">
          <mxGeometry x="553" y="880" width="100" height="40" as="geometry" />
        </mxCell>
        <mxCell id="cSipRcI18R2bOfCGjARb-109" value="Name" style="ellipse;whiteSpace=wrap;html=1;align=center;" vertex="1" parent="1">
          <mxGeometry x="676" y="890" width="100" height="40" as="geometry" />
        </mxCell>
        <mxCell id="cSipRcI18R2bOfCGjARb-110" value="Price" style="ellipse;whiteSpace=wrap;html=1;align=center;" vertex="1" parent="1">
          <mxGeometry x="836" y="900" width="100" height="40" as="geometry" />
        </mxCell>
        <mxCell id="cSipRcI18R2bOfCGjARb-111" value="Quantity in Stock" style="ellipse;whiteSpace=wrap;html=1;align=center;" vertex="1" parent="1">
          <mxGeometry x="966" y="880" width="100" height="40" as="geometry" />
        </mxCell>
        <mxCell id="cSipRcI18R2bOfCGjARb-112" value="" style="endArrow=none;html=1;rounded=0;entryX=0.25;entryY=1;entryDx=0;entryDy=0;exitX=0.636;exitY=0.054;exitDx=0;exitDy=0;exitPerimeter=0;" edge="1" parent="1" source="cSipRcI18R2bOfCGjARb-107" target="cSipRcI18R2bOfCGjARb-105">
          <mxGeometry relative="1" as="geometry">
            <mxPoint x="510" y="867.5599999999997" as="sourcePoint" />
            <mxPoint x="593" y="940" as="targetPoint" />
          </mxGeometry>
        </mxCell>
        <mxCell id="cSipRcI18R2bOfCGjARb-113" value="" style="endArrow=none;html=1;rounded=0;entryX=0.5;entryY=1;entryDx=0;entryDy=0;exitX=0.5;exitY=0;exitDx=0;exitDy=0;" edge="1" parent="1" source="cSipRcI18R2bOfCGjARb-109" target="cSipRcI18R2bOfCGjARb-105">
          <mxGeometry relative="1" as="geometry">
            <mxPoint x="483" y="940" as="sourcePoint" />
            <mxPoint x="538" y="850" as="targetPoint" />
          </mxGeometry>
        </mxCell>
        <mxCell id="cSipRcI18R2bOfCGjARb-114" value="" style="endArrow=none;html=1;rounded=0;entryX=0.75;entryY=1;entryDx=0;entryDy=0;exitX=0;exitY=0.5;exitDx=0;exitDy=0;" edge="1" parent="1" source="cSipRcI18R2bOfCGjARb-110" target="cSipRcI18R2bOfCGjARb-105">
          <mxGeometry relative="1" as="geometry">
            <mxPoint x="643" y="960" as="sourcePoint" />
            <mxPoint x="578" y="850" as="targetPoint" />
          </mxGeometry>
        </mxCell>
        <mxCell id="cSipRcI18R2bOfCGjARb-115" value="" style="endArrow=none;html=1;rounded=0;entryX=1;entryY=1;entryDx=0;entryDy=0;exitX=0;exitY=0.5;exitDx=0;exitDy=0;" edge="1" parent="1" source="cSipRcI18R2bOfCGjARb-111" target="cSipRcI18R2bOfCGjARb-105">
          <mxGeometry relative="1" as="geometry">
            <mxPoint x="693" y="850" as="sourcePoint" />
            <mxPoint x="578" y="810" as="targetPoint" />
          </mxGeometry>
        </mxCell>
        <mxCell id="cSipRcI18R2bOfCGjARb-117" value="Zip_code" style="ellipse;whiteSpace=wrap;html=1;align=center;" vertex="1" parent="1">
          <mxGeometry x="275" y="330" width="100" height="40" as="geometry" />
        </mxCell>
        <mxCell id="cSipRcI18R2bOfCGjARb-119" value="Attribute" style="ellipse;whiteSpace=wrap;html=1;align=center;" vertex="1" parent="1">
          <mxGeometry x="1450" y="340" width="100" height="40" as="geometry" />
        </mxCell>
        <mxCell id="cSipRcI18R2bOfCGjARb-120" value="Order" style="whiteSpace=wrap;html=1;align=center;" vertex="1" parent="1">
          <mxGeometry x="730" y="410" width="116" height="70" as="geometry" />
        </mxCell>
        <mxCell id="cSipRcI18R2bOfCGjARb-122" value="" style="endArrow=none;html=1;rounded=0;" edge="1" parent="1">
          <mxGeometry relative="1" as="geometry">
            <mxPoint x="780" y="280" as="sourcePoint" />
            <mxPoint x="783" y="410" as="targetPoint" />
          </mxGeometry>
        </mxCell>
        <mxCell id="cSipRcI18R2bOfCGjARb-123" value="Contains" style="shape=rhombus;perimeter=rhombusPerimeter;whiteSpace=wrap;html=1;align=center;" vertex="1" parent="1">
          <mxGeometry x="728" y="560" width="120" height="60" as="geometry" />
        </mxCell>
        <mxCell id="cSipRcI18R2bOfCGjARb-124" value="Send" style="shape=rhombus;perimeter=rhombusPerimeter;whiteSpace=wrap;html=1;align=center;" vertex="1" parent="1">
          <mxGeometry x="433" y="415" width="120" height="60" as="geometry" />
        </mxCell>
        <mxCell id="cSipRcI18R2bOfCGjARb-125" value="takes" style="shape=rhombus;perimeter=rhombusPerimeter;whiteSpace=wrap;html=1;align=center;" vertex="1" parent="1">
          <mxGeometry x="980" y="415" width="120" height="60" as="geometry" />
        </mxCell>
        <mxCell id="cSipRcI18R2bOfCGjARb-127" value="(1:N)" style="endArrow=none;html=1;rounded=0;entryX=0;entryY=0.75;entryDx=0;entryDy=0;exitX=1;exitY=0.5;exitDx=0;exitDy=0;" edge="1" parent="1">
          <mxGeometry relative="1" as="geometry">
            <mxPoint x="1101" y="445" as="sourcePoint" />
            <mxPoint x="1271" y="445" as="targetPoint" />
          </mxGeometry>
        </mxCell>
        <mxCell id="cSipRcI18R2bOfCGjARb-128" value="(1:1)" style="endArrow=none;html=1;rounded=0;entryX=0;entryY=0.5;entryDx=0;entryDy=0;" edge="1" parent="1" target="cSipRcI18R2bOfCGjARb-125">
          <mxGeometry relative="1" as="geometry">
            <mxPoint x="850" y="445" as="sourcePoint" />
            <mxPoint x="1000" y="440" as="targetPoint" />
          </mxGeometry>
        </mxCell>
        <mxCell id="cSipRcI18R2bOfCGjARb-129" value="(1:1)" style="endArrow=none;html=1;rounded=0;exitX=1;exitY=0.5;exitDx=0;exitDy=0;entryX=0;entryY=0.5;entryDx=0;entryDy=0;" edge="1" parent="1" source="cSipRcI18R2bOfCGjARb-124" target="cSipRcI18R2bOfCGjARb-120">
          <mxGeometry relative="1" as="geometry">
            <mxPoint x="570" y="440" as="sourcePoint" />
            <mxPoint x="730" y="440" as="targetPoint" />
          </mxGeometry>
        </mxCell>
        <mxCell id="cSipRcI18R2bOfCGjARb-130" value="(1:1)" style="endArrow=none;html=1;rounded=0;entryX=0;entryY=0.5;entryDx=0;entryDy=0;exitX=1;exitY=0.5;exitDx=0;exitDy=0;" edge="1" parent="1" source="cSipRcI18R2bOfCGjARb-1" target="cSipRcI18R2bOfCGjARb-124">
          <mxGeometry relative="1" as="geometry">
            <mxPoint x="260" y="440" as="sourcePoint" />
            <mxPoint x="420" y="440" as="targetPoint" />
          </mxGeometry>
        </mxCell>
        <mxCell id="cSipRcI18R2bOfCGjARb-131" value="(1:N)" style="endArrow=none;html=1;rounded=0;entryX=0.5;entryY=0;entryDx=0;entryDy=0;exitX=0.5;exitY=1;exitDx=0;exitDy=0;" edge="1" parent="1" source="cSipRcI18R2bOfCGjARb-120" target="cSipRcI18R2bOfCGjARb-123">
          <mxGeometry relative="1" as="geometry">
            <mxPoint x="780" y="480" as="sourcePoint" />
            <mxPoint x="940" y="480" as="targetPoint" />
          </mxGeometry>
        </mxCell>
        <mxCell id="cSipRcI18R2bOfCGjARb-132" value="(0:N)" style="endArrow=none;html=1;rounded=0;entryX=0.5;entryY=0;entryDx=0;entryDy=0;exitX=0.5;exitY=1;exitDx=0;exitDy=0;" edge="1" parent="1">
          <mxGeometry relative="1" as="geometry">
            <mxPoint x="788" y="620" as="sourcePoint" />
            <mxPoint x="793" y="730" as="targetPoint" />
          </mxGeometry>
        </mxCell>
        <mxCell id="cSipRcI18R2bOfCGjARb-133" value="UON" style="ellipse;whiteSpace=wrap;html=1;align=center;fontStyle=4;" vertex="1" parent="1">
          <mxGeometry x="733" y="240" width="100" height="40" as="geometry" />
        </mxCell>
        <mxCell id="cSipRcI18R2bOfCGjARb-134" value="Receipt date" style="ellipse;whiteSpace=wrap;html=1;align=center;" vertex="1" parent="1">
          <mxGeometry x="610" y="300" width="100" height="40" as="geometry" />
        </mxCell>
        <mxCell id="cSipRcI18R2bOfCGjARb-135" value="" style="endArrow=none;html=1;rounded=0;entryX=0;entryY=0;entryDx=0;entryDy=0;" edge="1" parent="1" target="cSipRcI18R2bOfCGjARb-120">
          <mxGeometry relative="1" as="geometry">
            <mxPoint x="660" y="340" as="sourcePoint" />
            <mxPoint x="820" y="340" as="targetPoint" />
          </mxGeometry>
        </mxCell>
        <mxCell id="cSipRcI18R2bOfCGjARb-136" value="Expected ship date" style="ellipse;whiteSpace=wrap;html=1;align=center;" vertex="1" parent="1">
          <mxGeometry x="810" y="300" width="100" height="40" as="geometry" />
        </mxCell>
        <mxCell id="cSipRcI18R2bOfCGjARb-137" value="" style="endArrow=none;html=1;rounded=0;entryX=0.292;entryY=1.087;entryDx=0;entryDy=0;entryPerimeter=0;" edge="1" parent="1" target="cSipRcI18R2bOfCGjARb-136">
          <mxGeometry relative="1" as="geometry">
            <mxPoint x="800" y="410" as="sourcePoint" />
            <mxPoint x="960" y="410" as="targetPoint" />
          </mxGeometry>
        </mxCell>
        <mxCell id="cSipRcI18R2bOfCGjARb-138" value="Actual ship data" style="ellipse;whiteSpace=wrap;html=1;align=center;" vertex="1" parent="1">
          <mxGeometry x="890" y="360" width="100" height="40" as="geometry" />
        </mxCell>
        <mxCell id="cSipRcI18R2bOfCGjARb-139" value="" style="endArrow=none;html=1;rounded=0;entryX=0;entryY=1;entryDx=0;entryDy=0;" edge="1" parent="1" target="cSipRcI18R2bOfCGjARb-138">
          <mxGeometry relative="1" as="geometry">
            <mxPoint x="840" y="410" as="sourcePoint" />
            <mxPoint x="1000" y="410" as="targetPoint" />
          </mxGeometry>
        </mxCell>
      </root>
    </mxGraphModel>
  </diagram>
</mxfile>
